<?xml version="1.0" encoding="utf-8"?>
<!-- Generator: Adobe Illustrator 24.3.0, SVG Export Plug-In . SVG Version: 6.00 Build 0)  -->
<svg version="1.1" id="Layer_1" xmlns="http://www.w3.org/2000/svg" xmlns:xlink="http://www.w3.org/1999/xlink" x="0px" y="0px"
	 width="200px" height="27.2px" viewBox="0 0 200 27.2" style="enable-background:new 0 0 200 27.2;" xml:space="preserve">
<style type="text/css">
	.st0{fill:#0092AB;}
	.st1{fill:#81C241;}
	.st2{fill:#62BA46;}
	.st3{fill:#0DB04B;}
	.st4{fill:#4BA5DC;}
	.st5{fill:#4D9A47;}
	.st6{fill:#C9DA2A;}
	.st7{fill:#69C8CF;}
</style>
<path class="st0" d="M52,10.3h7.1c4.2,0,6.9,2.2,6.9,5.8l0,0c0,4-3,6-7.1,6h-2.4v4.8H52V10.3z M58.8,18.7c1.6,0,2.6-0.8,2.6-2.2l0,0
	c0-1.3-0.9-2.2-2.6-2.2h-2.2v4.4H58.8z"/>
<path class="st0" d="M73.3,10.3h4.4L84.8,27h-4.9l-1.2-3h-6.5l-1.1,3h-4.8L73.3,10.3z M77.4,20.5l-1.9-4.9l-1.9,4.8h3.9L77.4,20.5
	L77.4,20.5z"/>
<path class="st0" d="M90.5,20.7l-6.3-10.4h5.2l3.4,6l3.4-6h5.2l-6.3,10.3v6.3h-4.6L90.5,20.7L90.5,20.7z"/>
<path class="st1" d="M111.5,17.4c3.6,0.8,5.3,2.1,5.3,4.9c0,3.2-2.5,4.9-5.8,4.9c-2.6,0-5-0.9-7-2.6l1.7-2.1
	c1.6,1.3,3.2,2.2,5.2,2.2c1.7,0,3-0.8,3-2.1s-0.7-1.9-3.7-2.6c-3.6-0.8-5.4-1.9-5.4-4.9c0-2.9,2.4-4.8,5.6-4.8c2.2,0,4.4,0.7,6,2.1
	l-1.5,2.2c-1.5-1.1-3-1.6-4.5-1.6c-1.6,0-2.8,0.8-2.8,2.1C107.5,16.1,108.2,16.6,111.5,17.4z"/>
<path class="st1" d="M124.8,10.3v16.6h-2.9V10.3H124.8z"/>
<path class="st1" d="M139.4,23L139.4,23l-5.3-7.8v11.9h-2.9V10.3h3.2l5,7.8l5-7.8h3.2v16.6h-2.9V15.1L139.4,23z"/>
<path class="st1" d="M159.6,21.8h-3.3v5.3h-2.9V10.3h6.6c3.8,0,6.3,2.2,6.3,5.6C166.4,19.7,163.3,21.8,159.6,21.8z M159.8,13.1h-3.4
	v6h3.4c2.2,0,3.6-1.2,3.6-3C163.3,14.1,162,13.1,159.8,13.1L159.8,13.1z"/>
<path class="st1" d="M170.9,10.3h2.9v13.9h8.7v2.7h-11.6L170.9,10.3L170.9,10.3z"/>
<path class="st1" d="M199.6,13.1h-9.4v4.4h8.3v2.6h-8.3v4.5h9.5v2.6h-12.4V10.3h12.3L199.6,13.1L199.6,13.1z"/>
<path class="st1" d="M203.7,13.1c-0.7,0-1.2-0.5-1.2-1.3c0-0.7,0.5-1.2,1.3-1.2c0.7,0,1.2,0.5,1.2,1.2
	C205.1,12.3,204.6,13.1,203.7,13.1C203.8,13.1,203.8,13.1,203.7,13.1z M203.8,10.7c-0.7,0-1.1,0.5-1.1,1.1c0,0.5,0.5,1.1,1.1,1.1
	c0.7,0,1.1-0.5,1.1-1.1l0,0C205,11,204.3,10.7,203.8,10.7L203.8,10.7L203.8,10.7z M204.1,11.8l0.4,0.5h-0.3l-0.3-0.4h-0.3v0.4h-0.3
	V11h0.5c0.3,0,0.5,0.1,0.5,0.4C204.3,11.5,204.2,11.8,204.1,11.8z M203.8,11.3h-0.3v0.4h0.3c0.1,0,0.3-0.1,0.3-0.3
	C204.1,11.3,203.9,11.3,203.8,11.3L203.8,11.3z"/>
<rect class="st2" width="10.4" height="10.4"/>
<path class="st3" d="M36.4,10.3H25.9V0l0,0C31.7,0,36.4,4.5,36.4,10.3L36.4,10.3z"/>
<rect x="25.9" y="16.6" class="st0" width="10.4" height="10.4"/>
<rect x="10.4" class="st1" width="15.6" height="10.4"/>
<rect x="10.4" y="16.6" class="st4" width="15.6" height="10.4"/>
<path class="st5" d="M10.4,27.1L10.4,27.1C4.6,27.1,0,22.5,0,16.6l0,0h10.4V27.1z"/>
<rect y="10.3" class="st6" width="10.4" height="6.3"/>
<rect x="25.9" y="10.3" class="st7" width="10.4" height="6.3"/>
</svg>
