<?xml version="1.0" encoding="utf-8"?>
<!-- Generator: Adobe Illustrator 24.3.0, SVG Export Plug-In . SVG Version: 6.00 Build 0)  -->
<svg version="1.1" id="Layer_1" xmlns="http://www.w3.org/2000/svg" xmlns:xlink="http://www.w3.org/1999/xlink" x="0px" y="0px"
	 width="200px" height="50.3px" viewBox="0 0 200 50.3" style="enable-background:new 0 0 200 50.3;" xml:space="preserve">
<style type="text/css">
	.st0{fill-rule:evenodd;clip-rule:evenodd;fill:#3E4348;}
	.st1{fill:#3E4348;}
</style>
<path class="st0" d="M8.4,0h33.5c2.3,0,4.4,0.9,6,2.4c1.6,1.6,2.4,3.7,2.4,6v33.5c0,4.7-3.7,8.4-8.4,8.4H8.4c-4.7,0-8.4-3.7-8.4-8.4
	V8.3C0,3.7,3.7,0,8.4,0z M38.5,41.2c1.5,0,2.7-1.2,2.7-2.7V11.9c0-1.5-1.2-2.7-2.7-2.7H11.9c-0.7,0-1.3,0.3-1.9,0.8
	c-0.5,0.5-0.8,1.2-0.8,1.9v26.7c0,1.5,1.2,2.7,2.7,2.7L38.5,41.2L38.5,41.2z"/>
<path class="st1" d="M19.9,31.9c-0.8,0-1.5-0.7-1.5-1.5V19.9c0-0.4,0.1-0.8,0.4-1.1s0.7-0.4,1.1-0.4h10.7c0.4,0,0.8,0.1,1.1,0.4
	c0.3,0.3,0.4,0.7,0.4,1.1v10.7c0,0.4-0.1,0.8-0.4,1.1s-0.7,0.4-1.1,0.4L19.9,31.9L19.9,31.9z"/>
<path class="st1" d="M75.9,22.9c-1.6-0.4-3.1-0.8-4.1-1.3c-2.1-0.9-3.1-2.3-3.1-4.1c0-3.6,3.5-5.1,6.8-5.1c3.2,0,6,1.3,8,3.7
	l0.1,0.1l2.7-2.1L86.1,14c-2.5-3.2-6.3-4.9-10.5-4.9c-2.8,0-5.5,0.8-7.3,2.1c-2.1,1.6-3.2,3.7-3.2,6.5c0,6.3,5.9,7.7,10.5,8.9
	c4.8,1.2,7.7,2.3,7.7,5.9c0,3.6-2.9,5.9-7.3,5.9c-2.3,0-6.3-0.5-8.9-4.5L67,33.6l-3,2.1l0.1,0.1c2.4,3.7,6.7,5.9,11.6,5.9
	c6.7,0,11.2-3.7,11.2-9.3C86.9,25.9,80.8,24.3,75.9,22.9z"/>
<path class="st0" d="M108.7,21.6v-3.3h3.2v32h-3.2V37.7c-1.9,2.5-4.5,3.9-7.9,3.9c-6.1,0-10.4-4.9-10.4-12s4.3-12,10.4-12
	C104.1,17.7,106.8,19.1,108.7,21.6z M93.9,29.6c0,6.5,3.7,8.9,7.2,8.9l0,0c4.5,0,7.6-3.5,7.6-8.9s-2.9-8.8-7.6-8.8
	C95.7,20.8,93.9,25.3,93.9,29.6z"/>
<path class="st1" d="M133.2,18.3V31c0,4.4-3.1,7.6-7.2,7.6c-3.5,0-5.2-2-5.2-6.3v-14h-3.2V33c0,5.5,2.9,8.8,8,8.8
	c3.1,0,5.7-1.3,7.6-3.7v3.2h3.2v-23C136.4,18.3,133.2,18.3,133.2,18.3z"/>
<path class="st0" d="M142.4,20.7c2.4-1.9,5.6-2.9,8.8-2.9c5.1,0,8.1,2.5,8.1,6.8v16.7h-3.2v-2.5c-1.6,2-4,3.1-6.9,3.1
	c-4.9,0-8-2.7-8-7.1c0-5.6,5.3-6.5,7.6-6.9c0.4,0,0.8-0.1,1.1-0.1l0,0l0,0c3.1-0.5,6.3-0.9,6.3-3.6c0-2.9-3.9-3.2-5.1-3.2
	c-2.1,0-5.1,0.7-7.1,2.4l-0.1,0.1l-1.7-2.5L142.4,20.7z M144.5,34.3c0,3.7,3.5,4.1,4.9,4.1l0,0c3.2,0,6.7-1.7,6.7-6.5v-3.3
	c-1.6,0.9-3.7,1.3-5.7,1.7l0,0l-0.9,0.1C146.1,31.2,144.5,31.9,144.5,34.3z"/>
<path class="st1" d="M178,18.7c-0.8-0.5-2-0.9-3.2-0.9c-2.5,0-4.9,1.3-6.5,3.3v-2.9h-3.2v22.9h3.2V28.8c0-5.5,3.1-7.9,6.1-7.9
	c0.9,0,1.7,0.1,2.5,0.5l0.3,0.1l1.1-2.9L178,18.7z"/>
<path class="st0" d="M178.9,29.7c0-7.1,4.4-12,10.8-12c6.1,0,10.4,4.4,10.3,10.7c0,0.5,0,1.1-0.1,1.6v0.1h-17.6
	c0.1,5.1,3.1,8.3,7.7,8.3c2.7,0,4.9-1.1,6.5-3.1l0.1-0.1l2.3,2.1l-0.1,0.1c-1.6,1.9-4.4,4.1-9.1,4.1
	C183.3,41.5,178.9,36.9,178.9,29.7z M189.6,20.8c-3.9,0-6.7,2.5-7.2,6.7h14.1C196.3,24.1,194.4,20.8,189.6,20.8z"/>
</svg>
