<?xml version="1.0" encoding="utf-8"?>
<!-- Generator: Adobe Illustrator 24.3.0, SVG Export Plug-In . SVG Version: 6.00 Build 0)  -->
<svg version="1.1" id="Layer_1" xmlns="http://www.w3.org/2000/svg" xmlns:xlink="http://www.w3.org/1999/xlink" x="0px" y="0px"
	 width="138.7px" height="57.8px" viewBox="0 0 138.7 57.8" style="enable-background:new 0 0 138.7 57.8;" xml:space="preserve">
<style type="text/css">
	.st0{fill-rule:evenodd;clip-rule:evenodd;fill:#32325D;}
</style>
<g>
	<path class="st0" d="M138.7,29.9c0-9.9-4.8-17.7-13.9-17.7c-9.2,0-14.8,7.8-14.8,17.5c0,11.6,6.5,17.4,16,17.4
		c4.6,0,8.1-1,10.7-2.6v-7.6c-2.6,1.3-5.7,2.1-9.4,2.1c-3.7,0-7.1-1.3-7.4-5.9h18.8C138.6,32.7,138.7,30.8,138.7,29.9z M119.6,26.2
		c0-4.3,2.6-6.2,5.1-6.2c2.4,0,4.9,1.8,4.9,6.2H119.6z"/>
	<path class="st0" d="M95.2,12.2c-3.7,0-6.2,1.8-7.6,3L87,12.8h-8.4v45l9.6-2v-11c1.3,1,3.5,2.4,6.8,2.4c6.9,0,13.2-5.5,13.2-17.7
		C108.3,18.3,102,12.2,95.2,12.2z M92.9,38.7c-2.2,0-3.7-0.8-4.6-1.8V22.6c1-1.1,2.4-1.9,4.6-1.9c3.5,0,5.9,3.9,5.9,9
		S96.4,38.7,92.9,38.7z"/>
	<polygon class="st0" points="65.4,9.9 75.1,7.7 75.1,0 65.4,2 	"/>
	<rect x="65.4" y="12.9" class="st0" width="9.6" height="33.8"/>
	<path class="st0" d="M55,15.6l-0.7-2.9H46v33.8h9.6V23.6c2.2-3,6.1-2.4,7.3-2v-8.9C61.8,12.3,57.3,11.6,55,15.6z"/>
	<path class="st0" d="M35.8,4.4l-9.4,2v30.8c0,5.7,4.3,9.9,10,9.9c3.1,0,5.4-0.6,6.8-1.2v-7.7c-1.2,0.6-7.3,2.2-7.3-3.5V21h7.3v-8.2
		h-7.3L35.8,4.4L35.8,4.4z"/>
	<path class="st0" d="M9.7,22.6c0-1.5,1.2-2.1,3.3-2.1c2.9,0,6.7,0.9,9.6,2.4v-9.1C19.4,12.6,16.3,12,13,12C5.2,12.1,0,16.2,0,22.9
		c0,10.7,14.6,9,14.6,13.5c0,1.8-1.5,2.4-3.7,2.4c-3.2,0-7.3-1.3-10.5-3.1v9.2c3.5,1.5,7.2,2.2,10.5,2.2c8,0,13.5-4,13.5-10.9
		C24.4,24.9,9.7,26.9,9.7,22.6z"/>
</g>
</svg>
